<svg width="6799" height="1024" version="1.1" viewBox="0 0 1799 270.9" xmlns="http://www.w3.org/2000/svg" xmlns:cc="http://creativecommons.org/ns#" xmlns:dc="http://purl.org/dc/elements/1.1/" xmlns:rdf="http://www.w3.org/1999/02/22-rdf-syntax-ns#"><title>Real Learning logo</title><rect width="1799" height="270.9" display="none" fill="#191724"/><g fill="#6add3c"><path d="m286.3 145q6.449 1.654 11 6.284 4.548 4.548 11.33 18.27l16.78 33.73h-17.94l-14.72-31.17q-6.367-13.31-11.49-17.12-5.044-3.886-13.23-3.886h-15.96v52.17h-16.78v-123.4h34.4q20.34 0 31.17 9.178t10.83 26.54q0 12.24-6.697 20.01-6.615 7.689-18.69 9.426zm-34.23-51.43v43.82h18.27q11.99 0 17.86-5.374 5.87-5.374 5.87-16.45 0-10.67-6.284-16.29-6.201-5.705-18.11-5.705zm165.3 59.61v7.441h-65.9v0.4961q0 15.13 7.855 23.4 7.937 8.268 22.32 8.268 7.276 0 15.21-2.315 7.937-2.315 16.95-7.028v15.13q-8.682 3.555-16.78 5.292-8.02 1.819-15.54 1.819-21.58 0-33.73-12.9-12.15-12.98-12.15-35.72 0-22.16 11.91-35.39t31.75-13.23q17.69 0 27.86 11.99 10.25 11.99 10.25 32.74zm-15.21-4.465q-0.3307-13.39-6.367-20.34-5.953-7.028-17.2-7.028-11 0-18.11 7.276-7.111 7.276-8.434 20.17zm83.26 8.02h-5.044q-13.31 0-20.09 4.713-6.697 4.63-6.697 13.89 0 8.351 5.044 12.98 5.044 4.63 13.97 4.63 12.57 0 19.76-8.682 7.193-8.764 7.276-24.14v-3.39zm29.52-6.284v52.83h-15.3v-13.73q-4.878 8.268-12.32 12.24-7.359 3.886-17.94 3.886-14.14 0-22.57-7.937-8.434-8.02-8.434-21.41 0-15.46 10.34-23.48 10.42-8.02 30.51-8.02h20.42v-2.398q-0.0827-11.08-5.622-16.04-5.54-5.044-17.69-5.044-7.772 0-15.71 2.232-7.937 2.232-15.46 6.532v-15.21q8.434-3.225 16.12-4.796 7.772-1.654 15.05-1.654 11.49 0 19.6 3.39 8.186 3.39 13.23 10.17 3.142 4.134 4.465 10.25 1.323 6.036 1.323 18.19zm67.22 19.26q0 10.25 3.721 15.46 3.803 5.209 11.16 5.209h17.78v12.9h-19.26q-13.64 0-21.17-8.764-7.441-8.764-7.441-24.8v-84.09h-24.39v-11.91h39.6zm168.8-89.88h16.78v109.4h59.61v14.06h-76.4zm176.1 73.34v7.441h-65.9v0.4961q0 15.13 7.855 23.4 7.937 8.268 22.32 8.268 7.276 0 15.21-2.315 7.937-2.315 16.95-7.028v15.13q-8.682 3.555-16.78 5.292-8.02 1.819-15.54 1.819-21.58 0-33.73-12.9-12.15-12.98-12.15-35.72 0-22.16 11.91-35.39 11.91-13.23 31.75-13.23 17.69 0 27.86 11.99 10.25 11.99 10.25 32.74zm-15.21-4.465q-0.3307-13.39-6.367-20.34-5.953-7.028-17.2-7.028-11 0-18.11 7.276-7.111 7.276-8.434 20.17zm83.26 8.02h-5.044q-13.31 0-20.09 4.713-6.697 4.63-6.697 13.89 0 8.351 5.044 12.98t13.97 4.63q12.57 0 19.76-8.682 7.193-8.764 7.276-24.14v-3.39zm29.52-6.284v52.83h-15.3v-13.73q-4.878 8.268-12.32 12.24-7.359 3.886-17.94 3.886-14.14 0-22.57-7.937-8.434-8.02-8.434-21.41 0-15.46 10.34-23.48 10.42-8.02 30.51-8.02h20.42v-2.398q-0.083-11.08-5.622-16.04-5.54-5.044-17.69-5.044-7.772 0-15.71 2.232-7.937 2.232-15.46 6.532v-15.21q8.434-3.225 16.12-4.796 7.772-1.654 15.05-1.654 11.49 0 19.6 3.39 8.186 3.39 13.23 10.17 3.142 4.134 4.465 10.25 1.323 6.036 1.323 18.19zm109.9-20.67q-4.878-3.803-9.922-5.54-5.044-1.736-11.08-1.736-14.22 0-21.75 8.93t-7.524 25.8v46.05h-15.3v-92.6h15.3v18.11q3.803-9.839 11.66-15.05 7.937-5.292 18.77-5.292 5.622 0 10.5 1.406 4.878 1.406 9.343 4.382zm93.35 16.12v57.38h-15.3v-57.38q0-12.48-4.382-18.36-4.382-5.87-13.73-5.87-10.67 0-16.45 7.607-5.705 7.524-5.705 21.66v52.34h-15.21v-92.6h15.21v13.89q4.051-7.937 11-11.99 6.945-4.134 16.45-4.134 14.14 0 21.08 9.343 7.028 9.26 7.028 28.11zm36.21-35.22h38.94v80.78h30.18v11.82h-75.57v-11.82h30.18v-68.96h-23.73zm23.73-36.05h15.21v19.26h-15.21zm143.9 71.27v57.38h-15.3v-57.38q0-12.48-4.382-18.36-4.382-5.87-13.73-5.87-10.67 0-16.45 7.607-5.705 7.524-5.705 21.66v52.34h-15.21v-92.6h15.21v13.89q4.051-7.937 11-11.99 6.945-4.134 16.45-4.134 14.14 0 21.08 9.343 7.028 9.26 7.028 28.11zm85.99 10.34q0-17.12-5.622-25.96-5.54-8.93-16.21-8.93-11.16 0-17.03 8.93-5.87 8.847-5.87 25.96t5.87 26.13q5.953 8.93 17.2 8.93 10.5 0 16.04-9.012 5.622-9.012 5.622-26.04zm15.21 41.09q0 20.84-9.839 31.58-9.839 10.75-28.94 10.75-6.284 0-13.15-1.158t-13.73-3.39v-15.05q8.103 3.803 14.72 5.622 6.615 1.819 12.15 1.819 12.32 0 17.94-6.697t5.622-21.25v-11q-3.638 7.772-9.922 11.58-6.284 3.803-15.3 3.803-16.21 0-25.88-12.98t-9.674-34.73q0-21.83 9.674-34.81 9.674-12.98 25.88-12.98 8.93 0 15.13 3.555 6.201 3.555 10.09 11v-11.99h15.21z" stroke-linejoin="bevel" stroke-width="31.44" aria-label="Real Learning"/><text x="784.27448" y="203.33243" display="none" font-family="Monospace" font-size="169.3px" stroke-linejoin="bevel" stroke-width="31.44" text-align="center" text-anchor="middle" xml:space="preserve"><tspan x="0" y="0" stroke-width="31.44">Real Learning</tspan></text><path d="m28.06 100.5 87.34 34.55-1e-3 25.9-87.34 34.46 0.0014-27.13 53.9-20.15-53.9-20.44z" stroke-width="0"/></g><g transform="matrix(1.338 0 0 1.338 -61.44 -42.41)" stroke="#f3e079"><path d="m1364 92.3h-26.72l-13.49 13.49-1e-4 86.57m27.52-64.08-27.52 27.52" fill="none" stroke-width="8.467"/><path d="m1307 192.4v-112.8l-19.05-19.05m-8.467 67.73 27.52 27.52m0-59.27 35.98-35.98m-76.2 31.75h26.72l13.49 13.49" fill="none" stroke-width="8.467"/><g fill="#f3e079" stroke-width="3.903"><ellipse cx="1351" cy="128.3" rx="12.87" ry="12.87"/><ellipse cx="1279" cy="128.3" rx="12.87" ry="12.87"/><ellipse cx="1364" cy="92.3" rx="12.87" ry="12.87"/><ellipse cx="1267" cy="92.3" rx="12.87" ry="12.87"/><ellipse cx="1343" cy="60.55" rx="12.87" ry="12.87"/><ellipse cx="1288" cy="60.55" rx="12.87" ry="12.87"/></g></g><path d="m1651 230.7h101.9" fill="#6add3c" stroke="#6add3c" stroke-width="31.44"/><metadata><rdf:RDF><cc:Work rdf:about=""><dc:rights><cc:Agent><dc:title>All Rights Reserved</dc:title></cc:Agent></dc:rights><dc:title>Real Learning logo</dc:title><dc:date>2026-05-13</dc:date><dc:creator><cc:Agent><dc:title>Viktor Sadkov</dc:title></cc:Agent></dc:creator></cc:Work></rdf:RDF></metadata></svg>
