<svg version="1.1" viewBox="0 0 128 128" xmlns="http://www.w3.org/2000/svg" xmlns:xlink="http://www.w3.org/1999/xlink"><defs><linearGradient id="f"><stop stop-color="#f4f4f4" offset="0"/></linearGradient><linearGradient id="a"><stop stop-color="#447821" offset="0"/></linearGradient><linearGradient id="b"><stop stop-color="#f03c3c" offset="0"/></linearGradient><linearGradient id="c"><stop stop-color="#e4b700" offset="0"/></linearGradient><linearGradient id="d"><stop stop-color="#6d5700" offset="0"/></linearGradient><linearGradient id="e"><stop stop-color="#04a" offset="0"/></linearGradient><linearGradient id="v" x1="53.97" x2="71.78" y1="37.12" y2="37.12" gradientTransform="matrix(.3521 1.164 -1.164 .3521 116.1 -32.4)" gradientUnits="userSpaceOnUse" xlink:href="#e"/><linearGradient id="s" x1="53.97" x2="71.78" y1="37.12" y2="37.12" gradientTransform="matrix(-.9981 .6945 -.6945 -.9981 172 83.9)" gradientUnits="userSpaceOnUse" xlink:href="#d"/><linearGradient id="n" x1="53.97" x2="71.78" y1="37.12" y2="37.12" gradientTransform="matrix(1.216 0 0 1.216 -12.1 -14.91)" gradientUnits="userSpaceOnUse" xlink:href="#c"/><linearGradient id="m" x1="74.53" x2="108.9" y1="43.84" y2="43.84" gradientTransform="matrix(1.216 0 0 1.216 -13.81 -13.59)" gradientUnits="userSpaceOnUse" xlink:href="#c"/><linearGradient id="l" x1="19.02" x2="52.76" y1="43" y2="43" gradientTransform="matrix(1.216 0 0 1.216 -13.81 -13.59)" gradientUnits="userSpaceOnUse" xlink:href="#c"/><linearGradient id="k" x1="45.63" x2="79.51" y1="27.29" y2="27.29" gradientTransform="matrix(1.216 .02478 -.02478 1.216 -11.8 -15.16)" gradientUnits="userSpaceOnUse" xlink:href="#c"/><linearGradient id="aa" x1="19.02" x2="108.9" y1="62.12" y2="62.12" gradientUnits="userSpaceOnUse"><stop stop-color="#fff" offset="0"/></linearGradient><linearGradient id="h" x1="53.97" x2="71.78" y1="37.12" y2="37.12" gradientTransform="matrix(-.9689 -.7346 .7346 -.9689 78.67 173)" gradientUnits="userSpaceOnUse" xlink:href="#b"/><linearGradient id="g" x1="53.97" x2="71.78" y1="37.12" y2="37.12" gradientTransform="matrix(.3992 -1.149 1.149 .3992 -34.92 111.8)" gradientUnits="userSpaceOnUse" xlink:href="#a"/><linearGradient id="ab" x1="21.39" x2="106.4" y1="61.18" y2="61.18" gradientUnits="userSpaceOnUse" xlink:href="#f"/><linearGradient id="ac" x1="6.94" x2="121" y1="61.03" y2="61.03" gradientUnits="userSpaceOnUse" xlink:href="#f"/><linearGradient id="z" x1="45.63" x2="79.51" y1="27.29" y2="27.29" gradientTransform="matrix(1.216 .02478 -.02478 1.216 -11.8 -15.16)" gradientUnits="userSpaceOnUse" xlink:href="#e"/><linearGradient id="y" x1="45.63" x2="79.51" y1="27.29" y2="27.29" gradientTransform="matrix(1.216 .02478 -.02478 1.216 -11.8 -15.16)" gradientUnits="userSpaceOnUse" xlink:href="#d"/><linearGradient id="x" x1="45.63" x2="79.51" y1="27.29" y2="27.29" gradientTransform="matrix(1.216 .02478 -.02478 1.216 -11.8 -15.16)" gradientUnits="userSpaceOnUse" xlink:href="#b"/><linearGradient id="w" x1="45.63" x2="79.51" y1="27.29" y2="27.29" gradientTransform="matrix(1.216 .02478 -.02478 1.216 -11.8 -15.16)" gradientUnits="userSpaceOnUse" xlink:href="#a"/><linearGradient id="u" x1="74.53" x2="108.9" y1="43.84" y2="43.84" gradientTransform="matrix(1.216 0 0 1.216 -13.81 -13.59)" gradientUnits="userSpaceOnUse" xlink:href="#e"/><linearGradient id="t" x1="74.53" x2="108.9" y1="43.84" y2="43.84" gradientTransform="matrix(1.216 0 0 1.216 -13.81 -13.59)" gradientUnits="userSpaceOnUse" xlink:href="#d"/><linearGradient id="r" x1="74.53" x2="108.9" y1="43.84" y2="43.84" gradientTransform="matrix(1.216 0 0 1.216 -13.81 -13.59)" gradientUnits="userSpaceOnUse" xlink:href="#b"/><linearGradient id="q" x1="74.53" x2="108.9" y1="43.84" y2="43.84" gradientTransform="matrix(1.216 0 0 1.216 -13.81 -13.59)" gradientUnits="userSpaceOnUse" xlink:href="#a"/><linearGradient id="p" x1="19.02" x2="52.76" y1="43" y2="43" gradientTransform="matrix(1.216 0 0 1.216 -13.81 -13.59)" gradientUnits="userSpaceOnUse" xlink:href="#e"/><linearGradient id="o" x1="19.02" x2="52.76" y1="43" y2="43" gradientTransform="matrix(1.216 0 0 1.216 -13.81 -13.59)" gradientUnits="userSpaceOnUse" xlink:href="#d"/><linearGradient id="j" x1="19.02" x2="52.76" y1="43" y2="43" gradientTransform="matrix(1.216 0 0 1.216 -13.81 -13.59)" gradientUnits="userSpaceOnUse" xlink:href="#b"/><linearGradient id="i" x1="19.02" x2="52.76" y1="43" y2="43" gradientTransform="matrix(1.216 0 0 1.216 -13.81 -13.59)" gradientUnits="userSpaceOnUse" xlink:href="#a"/></defs><g fill="none" stroke-linecap="round" stroke-linejoin="round" stroke-width="2.5"><path d="m54.05 29.4-9.429-0.4163m6.662-13.42 5.66-6.484 13.84-0.01013 3.222 3.882m8.142 17.65-9.01-0.5092" stroke="url(#k)"/><path transform="rotate(-72,64,64)" d="m54.05 29.4-9.429-0.4163m6.662-13.42 5.66-6.484 13.84-0.01013 3.222 3.882m8.142 17.65-9.01-0.5092" stroke="url(#w)"/><path transform="rotate(216 64 64)" d="m54.05 29.4-9.429-0.4163m6.662-13.42 5.66-6.484 13.84-0.01013 3.222 3.882m8.142 17.65-9.01-0.5092" stroke="url(#x)"/><path transform="rotate(144,64,64)" d="m54.05 29.4-9.429-0.4163m6.662-13.42 5.66-6.484 13.84-0.01013 3.222 3.882m8.142 17.65-9.01-0.5092" stroke="url(#y)"/><path transform="rotate(72,64,64)" d="m54.05 29.4-9.429-0.4163m6.662-13.42 5.66-6.484 13.84-0.01013 3.222 3.882m8.142 17.65-9.01-0.5092" stroke="url(#z)"/></g><g fill="none" stroke-linecap="round" stroke-linejoin="round" stroke-width="2.5"><path d="m26.83 36.28-6.218 7.708m-6.616 13.85-1.231-0.9656-1.631-4.591 2.756-5.432m5.433-9.129 7.06-11.16 11.96-3.426" stroke="url(#l)"/><path transform="rotate(-72,64,64)" d="m26.83 36.28-6.218 7.708m-6.616 13.85-1.231-0.9656-1.631-4.591 2.756-5.432m5.433-9.129 7.06-11.16 11.96-3.426" stroke="url(#i)"/><path transform="rotate(216 64 64)" d="m26.83 36.28-6.218 7.708m-6.616 13.85-1.231-0.9656-1.631-4.591 2.756-5.432m5.433-9.129 7.06-11.16 11.96-3.426" stroke="url(#j)"/><path transform="rotate(144,64,64)" d="m26.83 36.28-6.218 7.708m-6.616 13.85-1.231-0.9656-1.631-4.591 2.756-5.432m5.433-9.129 7.06-11.16 11.96-3.426" stroke="url(#o)"/><path transform="rotate(72,64,64)" d="m26.83 36.28-6.218 7.708m-6.616 13.85-1.231-0.9656-1.631-4.591 2.756-5.432m5.433-9.129 7.06-11.16 11.96-3.426" stroke="url(#p)"/></g><g fill="none" stroke-linecap="round" stroke-linejoin="round" stroke-width="2.5"><path d="m78.2 21.06 22.35 8.641 14.2 18.93 2.052 5.805-1.521 5.632-1.059-0.2496-4.2-6.509 0.0254-2.794-13.06-15.98-14.84-3.93" stroke="url(#m)"/><path transform="rotate(-72,64,64)" d="m78.2 21.06 22.35 8.641 14.2 18.93 2.052 5.805-1.521 5.632-1.059-0.2496-4.2-6.509 0.0254-2.794-13.06-15.98-14.84-3.93" stroke="url(#q)"/><path transform="rotate(216 64 64)" d="m78.2 21.06 22.35 8.641 14.2 18.93 2.052 5.805-1.521 5.632-1.059-0.2496-4.2-6.509 0.0254-2.794-13.06-15.98-14.84-3.93" stroke="url(#r)"/><path transform="rotate(144,64,64)" d="m78.2 21.06 22.35 8.641 14.2 18.93 2.052 5.805-1.521 5.632-1.059-0.2496-4.2-6.509 0.0254-2.794-13.06-15.98-14.84-3.93" stroke="url(#t)"/><path transform="rotate(72,64,64)" d="m78.2 21.06 22.35 8.641 14.2 18.93 2.052 5.805-1.521 5.632-1.059-0.2496-4.2-6.509 0.0254-2.794-13.06-15.98-14.84-3.93" stroke="url(#u)"/></g><g fill="none" stroke-linecap="round" stroke-linejoin="round" stroke-width="2.5"><path d="m35.78 45.9c4.696 1.632 7.18 6.763 5.548 11.46-1.632 4.696-6.763 7.18-11.46 5.548s-7.18-6.763-5.548-11.46 6.763-7.18 11.46-5.548z" stroke="url(#g)"/><path d="m37.85 85.41c3.004-3.962 8.651-4.739 12.61-1.735s4.739 8.651 1.735 12.61c-3.004 3.962-8.651 4.739-12.61 1.735-3.962-3.004-4.739-8.651-1.735-12.61z" stroke="url(#h)"/><path d="m76.07 95.65c-2.84-4.081-1.834-9.692 2.248-12.53 4.081-2.84 9.692-1.834 12.53 2.248 2.84 4.081 1.834 9.692-2.248 12.53-4.081 2.84-9.692 1.834-12.53-2.248z" stroke="url(#s)"/><path d="m97.62 62.47c-4.759 1.44-9.784-1.251-11.22-6.01-1.44-4.759 1.251-9.784 6.01-11.22 4.759-1.44 9.784 1.251 11.22 6.01 1.44 4.759-1.251 9.784-6.01 11.22z" stroke="url(#v)"/><circle transform="rotate(1.168)" cx="64.35" cy="30.23" r="9.003" stroke="url(#n)"/></g></svg>
