<svg version="1.1" viewBox="0 0 128 128" xmlns="http://www.w3.org/2000/svg" xmlns:xlink="http://www.w3.org/1999/xlink"><defs><linearGradient id="b" x1="-5.955" x2="89.96" y1="90.83" y2="16.92" gradientTransform="translate(16.75,18.75)" gradientUnits="userSpaceOnUse"><stop stop-color="#2b2b2b" offset="0"/><stop stop-color="#5b5b5b" offset="1"/></linearGradient><mask id="a" maskUnits="userSpaceOnUse"><g><path d="m25.1 94.71c4.994-31.07 2.563-29.52 18.92-30.05m58.88 30.05c-4.994-31.07-2.563-29.52-18.92-30.05" fill="none" stroke="#fff" stroke-linecap="round" stroke-linejoin="round" stroke-width="2"/><path d="m54.84 64.53c0.7291-0.04576 7.996-0.1304 9.156-0.1304m9.156 0.1304c-0.7291-0.04576-7.996-0.1304-9.156-0.1304" fill="none" stroke="#fff" stroke-linecap="round" stroke-linejoin="round" stroke-width="2"/><path d="m63.99 92.48c-20.4 0-26.13-0.4635-28.41 3.944-4.714 9.116-7.563 8.218-10.9 7.745-7.35-1.04-9.227-6.044-9.966-10.21-0.9145-5.159-1.152-7.936-0.5265-12.15 0.3501-2.358 0.6588-5.416 1.676-9.13 4.315-15.76 7.204-26.91 12.9-29.06 10.7-4.021 25.18-2.718 35.16-2.718m0.07997 51.57c20.4 0 26.13-0.4635 28.41 3.944 4.714 9.116 7.563 8.218 10.9 7.745 7.35-1.04 9.227-6.044 9.966-10.21 0.9145-5.159 1.152-7.936 0.5265-12.15-0.3501-2.358-0.6588-5.416-1.676-9.13-4.315-15.76-7.204-26.91-12.9-29.06-10.7-4.021-25.18-2.718-35.16-2.718" fill="none" stroke="#fff" stroke-linecap="round" stroke-linejoin="round" stroke-width="2"/><path d="m27.25 44.35c-0.3977-2.917 2.11-4.755 8.286-5.524 5.845-0.7276 6.762 0.08839 6.762 1.701m58.46 3.823c0.3978-2.917-2.11-4.755-8.286-5.524-5.845-0.7276-6.762 0.08839-6.762 1.701" fill="none" stroke="#fff" stroke-linecap="round" stroke-linejoin="round" stroke-width="2"/><path d="m51.42 61.72c0 1.046-0.8476 1.893-1.893 1.893s-1.893-0.8476-1.893-1.893 0.8476-1.893 1.893-1.893 1.893 0.8476 1.893 1.893zm25.15 0c0 1.046 0.8476 1.893 1.893 1.893s1.893-0.8476 1.893-1.893-0.8476-1.893-1.893-1.893-1.893 0.8476-1.893 1.893z" fill="#fff" fill-opacity=".9999" stroke="#fff" stroke-linecap="round" stroke-linejoin="round" stroke-width="1.827"/><path d="m55.32 61.75c0 3.195-2.59 5.786-5.786 5.786s-5.786-2.59-5.786-5.786 2.59-5.786 5.786-5.786 5.786 2.59 5.786 5.786zm17.37 0c0 3.195 2.59 5.786 5.786 5.786s5.786-2.59 5.786-5.786-2.59-5.786-5.786-5.786-5.786 2.59-5.786 5.786z" fill="none" stroke="#fff" stroke-linecap="round" stroke-linejoin="round" stroke-width="2"/><path d="m44.38 48.2h3.719m35.53 0h-3.719" fill="none" stroke="#fff" stroke-linecap="round" stroke-linejoin="round" stroke-width="3.5"/><path transform="rotate(10.5)" x="49.563862" y="63.241707" width="15.200963" height="13.742219" rx="0" ry="2.0464292" d="m51.61 63.24h11.11c1.134 0 2.046 0.9127 2.046 2.046v9.649c0 1.134-0.9127 2.046-2.046 2.046h-11.11c-1.134 0-2.046-0.9127-2.046-2.046v-9.649c0-1.134 0.9127-2.046 2.046-2.046zm48.73-9.031-10.37 3.981c-1.058 0.4063-1.583 1.585-1.177 2.644l3.458 9.008c0.4063 1.058 1.585 1.583 2.644 1.177l10.37-3.981c1.058-0.4063 1.583-1.585 1.177-2.644l-3.458-9.008c-0.4063-1.058-1.585-1.583-2.644-1.177z" fill="none" stroke="#fff" stroke-linecap="round" stroke-linejoin="round" stroke-width="2"/></g><path d="m61.18 79.49h5.646" fill="none" stroke="#fff" stroke-linecap="round" stroke-linejoin="round" stroke-width="3.5"/><circle cx="64" cy="55.1" r="3.542" fill="#fff" fill-opacity=".9999"/><circle cx="63.96" cy="48.02" r="1.062" fill="#fff" fill-opacity=".9999"/><g transform="matrix(.8233 0 0 .8233 16.84 8.957)"><circle cx="94.8" cy="49.8" r="3.105" fill="#fff" stroke-width="0"/><circle transform="scale(-1)" cx="-89.4" cy="-55.2" r="3.105" fill="#fff" stroke-width="0"/><circle transform="scale(-1)" cx="-100.2" cy="-55.2" r="3.105" fill="#fff" stroke-width="0"/><circle cx="94.8" cy="60.6" r="3.105" fill="#fff" stroke-width="0"/></g><path transform="matrix(.8084 0 0 .8084 6.361 10.51)" d="m25.67 54.86v-1.867c0-0.3828 0.1654-0.5542 0.5527-0.5542h4.17c0.06137 0 0.1309-0.06495 0.2109-0.1607m-4.934 2.583-1.8e-5 1.867c-4e-6 0.3828 0.1654 0.5542 0.5527 0.5542l4.17 4e-5c0.06137 1e-6 0.1309 0.06495 0.2109 0.1607m2.594 4.946h-1.867c-0.3828 0-0.5542-0.1654-0.5542-0.5527v-4.17c0-0.06137-0.06495-0.1309-0.1607-0.2109m2.583 4.934 1.867 1.8e-5c0.3828 4e-6 0.5542-0.1654 0.5542-0.5527l4e-5 -4.17c1e-6 -0.06137 0.06495-0.1309 0.1607-0.2109m4.946-2.594v1.867c0 0.3828-0.1654 0.5542-0.5527 0.5542h-4.17c-0.06137 0-0.1309 0.06495-0.2109 0.1607m4.934-2.583 1.8e-5 -1.867c4e-6 -0.3828-0.1654-0.5542-0.5527-0.5542l-4.17-4e-5c-0.06137-1e-6 -0.1309-0.06495-0.2109-0.1607m-2.594-4.946h1.867c0.3828 0 0.5542 0.1654 0.5542 0.5527v4.17c0 0.06137 0.06495 0.1309 0.1607 0.2109m-2.583-4.934-1.867-1.8e-5c-0.3828-4e-6 -0.5542 0.1654-0.5542 0.5527l-4e-5 4.17c-1e-6 0.06137-0.06495 0.1309-0.1607 0.2109" fill="none" stroke="#fff" stroke-linecap="round" stroke-linejoin="round" stroke-width="2"/></mask></defs><g><rect width="128" height="128" rx="0" ry="0" fill="url(#b)" mask="url(#a)"/></g></svg>
