<svg width="128" height="128" version="1.1" viewBox="0 0 33.87 33.87" xmlns="http://www.w3.org/2000/svg" xmlns:xlink="http://www.w3.org/1999/xlink"><defs><mask id="b" maskUnits="userSpaceOnUse"><g transform="matrix(.9002 0 0 .9002 1.706 1.392)" stroke="#000"><rect width="33.87" height="33.87" d="M 0,0 H 33.866669 V 33.866669 H 0 Z M 33.866666,0 H -2.7011719e-6 V 33.866669 H 33.866666 Z" fill="#fff" stroke-width="0"/><path d="m30.91 19.11c-0.8267-0.01837-8.606 0.2612-9.14 0.2704-0.5327 0.0092-1.637-1.706-3.937-1.234-0.3157-0.06085-0.4428 0.4122-1.501 0.6463 0.1624 0.8723 1.102 0.6246 1.488 0.4225 0.4406-0.2308 0.845-0.03674 0.992 0.2939 0.147 0.3307 0.2939 1.929 2.811 1.433" stroke="#000" stroke-linecap="round" stroke-linejoin="round" stroke-width=".5292"/><path d="m15.21 26.27c0.845 0 3.506 0.01909 3.874 0.01909 0.496-5e-6 0.6059 1.387 0.05511 1.378 0.6984 0.2484 0.6344 1.419-0.05511 1.433 0.2474 0.6015-0.07516 1.463-0.5695 1.47 1.368 2.072-4.491 1.578-5.511 0.6981-0.2802-0.1051-6.944 0.3062-10.42 0.4593" stroke="#000" stroke-linecap="round" stroke-linejoin="round" stroke-width=".5292"/></g></mask><linearGradient id="c" x1="12.93" x2="20.93" y1="20.64" y2="20.64" gradientUnits="userSpaceOnUse"><stop stop-color="#4f4f4f" offset="0"/><stop stop-color="#7a7a7a" offset="1"/></linearGradient><radialGradient id="a" cx="16.72" cy="9.183" r="3.657" gradientTransform="matrix(1.959 .03184 -.04611 2.837 -15.54 -16.88)" gradientUnits="userSpaceOnUse"><stop stop-color="#ff4200" offset=".2821"/><stop stop-color="#ffd100" stop-opacity=".5176" offset="1"/></radialGradient></defs><g fill="none" stroke-linecap="round" stroke-linejoin="round"><g stroke-width=".5292"><path d="m18.24 22.81c1.947 0.496 2.075 0.2188 3.307-0.4772 1.36 0.2409 8.92 1.417 9.361 1.509m-15.49-5.673c-1.338 0.1169-1.383 1.413 0.05018 1.228-1.658-0.0091-1.163 1.199 0.05374 1.188-1.225-0.3096-1.431 1.126 0.06317 1.039-0.9092-0.1135-1.102 1.079 0.01477 1.209" stroke="#a1846b"/><path d="m15.69 25.15c-1.653 0.1286-2.278 1.415-2.719 1.415l-10.38-0.8083" stroke="#a1846b"/><path d="m14.65 9.521c-2.68-3.184 0.3031-3.358-0.3247-6.183 0.3047 0.2781 1.189 0.904 1.397 1.867-0.1419-2.364-0.5394-2.929 1.273-4.867-0.4675 3.197 1.729 2.158 1.395 4.825 0.671-0.4684 0.7445-1.236 0.6311-1.99 0.8472 1.126 2.292 4.463 0.1985 6.32" stroke="url(#a)"/></g><path transform="matrix(1.111 0 0 1.111 -1.895 -1.546)" d="m15.48 14.02c-1.091-1.231-2.181-2.002-2.306-4.033 0 0-0.0071-0.07437 3.761-0.00826m0 4.991c-2.125 0.0078-2.005 0.09524-2.009-0.4297 0.01552-0.5454-0.0071-0.4793 2.009-0.4958m-1.441 0.9332s0.6438 15.44 0.767 16.25c0.01938 0.1273 0.3562 0.09685 0.6744 0.09471m1.456-17.3c1.091-1.231 2.181-2.002 2.306-4.033 0 0 0.0071-0.07437-3.761-0.00826m0 4.991c2.125 0.0078 2.005 0.09524 2.009-0.4297-0.01552-0.5454 0.0071-0.4793-2.009-0.4958m1.441 0.9332s-0.6438 15.44-0.767 16.25c-0.01938 0.1273-0.3562 0.09685-0.6744 0.09471" mask="url(#b)" stroke="url(#c)" stroke-width=".4763"/><path d="m18.65 30.56-1.735 0.0027m2.211-1.469-1.834 7.61e-4m1.894-1.438-1.855 0.06152m-2.12-1.454c0.845 0 3.506 0.01909 3.874 0.01909 0.496-5e-6 0.6059 1.387 0.05511 1.378 0.6984 0.2484 0.6344 1.419-0.05511 1.433 0.2474 0.6015-0.07516 1.463-0.5695 1.47 1.368 2.072-4.491 1.578-5.511 0.6981-0.2802-0.1051-6.944 0.3062-10.42 0.4593" stroke="#a1846b" stroke-width=".5292"/><path d="m30.91 19.11c-0.8267-0.01837-8.606 0.2612-9.14 0.2704-0.5327 0.0092-1.637-1.706-3.937-1.234-0.3157-0.06085-0.4428 0.4122-1.501 0.6463 0.1624 0.8723 1.102 0.6246 1.488 0.4225 0.4406-0.2308 0.845-0.03674 0.992 0.2939 0.147 0.3307 0.2939 1.929 2.811 1.433" stroke="#a1846b" stroke-width=".5292"/></g></svg>
