<svg version="1.1" viewBox="0 0 128 128" xmlns="http://www.w3.org/2000/svg" xmlns:xlink="http://www.w3.org/1999/xlink"><defs><filter id="a" x="-.08979" y="-.07576" width="1.18" height="1.152" color-interpolation-filters="sRGB"><feComposite in="BackgroundImage" in2="SourceGraphic" operator="arithmetic" result="composite1"/></filter><linearGradient id="b" x1="64.03" x2="69.52" y1="71.86" y2="62.52" gradientUnits="userSpaceOnUse"><stop stop-color="#d4aa00" offset="0"/><stop stop-color="#ffd733" offset="1"/></linearGradient><linearGradient id="d" x1="17.18" x2="110.9" y1="69.59" y2="69.59" gradientUnits="userSpaceOnUse"><stop stop-color="#784421" offset=".4844"/><stop stop-color="#955429" offset="1"/></linearGradient><linearGradient id="c" x1="17.18" x2="110.9" y1="47.37" y2="47.37" gradientUnits="userSpaceOnUse"><stop stop-color="#784421" offset=".4883"/><stop stop-color="#955429" offset="1"/></linearGradient></defs><g fill="none" stroke-linecap="round" stroke-linejoin="round"><path x="18.675831" y="37.997185" width="90.728424" height="63.192299" ry="7.7652297" d="m55.13 24.13c-2.731 0-4.928 2.197-4.928 4.928v8.939h-23.76c-4.302 0-7.766 3.462-7.766 7.764v47.66c0 4.302 3.464 7.766 7.766 7.766h75.2c4.302 0 7.766-3.464 7.766-7.766v-47.66c0-4.302-3.464-7.764-7.766-7.764h-24.03v-8.939c0-2.731-2.199-4.928-4.93-4.928z" stroke="url(#d)" stroke-width="3"/><path x="18.675831" y="37.997185" width="90.728424" height="32.609932" ry="7.7652297" d="m26.44 38c-4.302 0-7.766 3.462-7.766 7.764v17.08c0 4.302 3.464 7.766 7.766 7.766h32.07v-4.107c0-1.458 1.173-2.633 2.631-2.633h5.875c1.458 0 2.631 1.175 2.631 2.633v4.107h31.99c4.302 0 7.766-3.464 7.766-7.766v-17.08c0-4.302-3.464-7.764-7.766-7.764z" stroke="url(#c)" stroke-width="3"/><rect x="58.51" y="63.87" width="11.14" height="13.76" ry="2.631" filter="url(#a)" stroke="#784421" stroke-width="2"/><rect x="58.51" y="63.87" width="11.14" height="13.76" ry="2.631" stroke="url(#b)" stroke-width="3"/><rect x="50.2" y="24.13" width="27.4" height="19.8" ry="4.929" filter="url(#a)" stroke="#784421" stroke-width="3"/></g></svg>
