<svg version="1.1" viewBox="0 0 128 128" xmlns="http://www.w3.org/2000/svg" xmlns:xlink="http://www.w3.org/1999/xlink"><defs><linearGradient id="c" x1="125.1" x2="100.5" y1="40.83" y2="74.59" gradientUnits="userSpaceOnUse"><stop stop-color="#777" offset="0"/><stop stop-color="#636363" offset=".7847"/></linearGradient><linearGradient id="b" x1="23.25" x2="103.4" y1="53.08" y2="53.08" gradientUnits="userSpaceOnUse"><stop offset="0"/><stop stop-color="#2e2e2e" offset="1"/></linearGradient><mask id="a" maskUnits="userSpaceOnUse"><g stroke-linecap="round" stroke-linejoin="round"><rect width="128" height="128" fill="#fff"/><path d="m78.7 48.78c0.8902-8.479-6.516-7.291-7.222-4.433 0.4859-2.609-5.155-7.334-8.032-0.2632-0.7363-1.376-5.495-4.287-7.119 2.096-2.584-3.052-6.28-0.8299-6.355 0.6386-0.08479 1.67-0.135 6.593-0.135 9.403 0 2.029 4.252 4.991 6.893 0.1101 0.6749 2.667 4.877 4.561 7.012 0.2657 2.295 3.996 6.306 2.706 7.225 0.5922m12.55 6.144c-0.07591-6.293-2.758-12.9-4.521-14.16-1.245-0.01806-6.875-0.2157-12.54-0.2867-0.7573 6.825 4.213 6.926 6.585 8.098 0.1171 0.3074 0.2729 1.32 0.4193 1.931" stroke="#000" stroke-linecap="round" stroke-linejoin="round" stroke-width="2"/></g></mask></defs><g fill="none" stroke-linecap="round" stroke-linejoin="round" stroke-width="2"><path d="m53.05 112.9 2.085-36.93s-7.806-4.806-5.965-17.43" stroke="#a1846b"/><path d="m102.4 48.06c8.201 0.1199 8.378-6.903 5.337-9.921 3e-3 -5.199-0.9417-4.998 4.096-4.961 6.388 0.04764 5.353-0.2138 5.374 5.337-2.684 3.07-1.75 2.603-1.804 5.788 0.9186 1.083 1.372 1.821 2.154 3.027 1.684 19.02-11.87 26.15-16.25 26.44 0 0 6e-3 -1.751 0-1.766 14.5-11.82 7.711-16.27 1.089-16.27" stroke="url(#c)"/><path d="m25.19 47.82c13.58 0.9805 77.18 0.2442 77.18 0.2442v7.667s-65.76 2.25-76.58 2.612c-1.946-3.488-1.928-7.445-0.6013-10.52z" mask="url(#a)" stroke="url(#b)"/><path d="m78.7 48.78c0.8902-8.479-6.516-7.291-7.222-4.433 0.4859-2.609-5.155-7.334-8.032-0.2632-0.7363-1.376-5.495-4.287-7.119 2.096-2.584-3.052-6.28-0.8299-6.355 0.6386-0.08479 1.67-0.135 6.593-0.135 9.403 0 2.029 4.252 4.991 6.893 0.1101 0.6749 2.667 4.877 4.561 7.012 0.2657 2.295 3.996 6.306 2.706 7.225 0.5922m-14.42-11.66 0.1566 10.76m6.843-12.77 0.1122 13.08m7.85-12.62-0.0016 4.998m4.005 63.92-2.05-37.1s8.51-9.936 10.05-12.46c-0.07591-6.293-2.758-12.9-4.521-14.16-1.245-0.01806-6.875-0.2157-12.54-0.2867-0.7573 6.825 4.213 6.926 6.585 8.098 0.1171 0.3074 0.2729 1.32 0.4193 1.931-9.362 1.306-10.47 8.21-10.68 9.655" stroke="#a1846b"/></g></svg>
