<svg version="1.1" viewBox="0 0 128 128" xmlns="http://www.w3.org/2000/svg" xmlns:xlink="http://www.w3.org/1999/xlink"><defs><linearGradient id="d" x1="48.26" x2="65.06" y1="28.3" y2="28.3" gradientTransform="matrix(.8774 0 0 .8774 7.823 8.114)" gradientUnits="userSpaceOnUse"><stop stop-color="#a1846b" offset="0"/></linearGradient><linearGradient id="e" x1="6.946" x2="28.32" y1="66" y2="66" gradientUnits="userSpaceOnUse"><stop stop-color="#808080" offset="0"/><stop stop-color="#a7a7a7" offset="1"/></linearGradient><linearGradient id="c" x1="100.1" x2="121" y1="64.87" y2="64.87" gradientUnits="userSpaceOnUse"><stop stop-color="#c83737" offset="0"/><stop stop-color="#ea6363" offset="1"/></linearGradient><linearGradient id="b" x1="13.34" x2="79.2" y1="57.13" y2="57.13" gradientUnits="userSpaceOnUse"><stop offset="0"/><stop stop-color="#2b2b2b" offset="1"/></linearGradient><linearGradient id="a" x1="83.7" x2="94.05" y1="69.87" y2="69.87" gradientTransform="matrix(.8774 0 0 .8774 7.823 8.114)" gradientUnits="userSpaceOnUse"><stop stop-color="#a1846b" offset="0"/><stop stop-color="#ab917a" offset="1"/></linearGradient></defs><g stroke-linecap="round" stroke-linejoin="round" stroke-width="1.755"><path d="m90.34 77.06c-0.07756-6.553-4.382-9.19-9.074-15.28m4.731 21.99c-5.855-4.615-7.988-1.784-13.3-17.26m3.645-9.966c-2.831-4.421-4.731-7.096-5.429-9.539m4.537 15.98c-2.598-5.584-2.521-6.98-7.833-13.84m26.45 24.43c0.1939-5.08-3.71-9.88-7.135-12.76-7.807-5.554-10.74-10.2-13.42-16.6m39.74 38.34c-9.843 5.457-10.66 4.371-16.32 5.889-4.538 1.408-9.839 4.472-12.59 1.931-1.267-1.17-2.89-3.499-4.034-4.741-1.725-1.872-3.014-2.972-5.851-6.67-3.013-4.543-5.285-13.16-6.032-15.63-1.55-5.111-2.989-7.102-4.003-8.829m36.59 2.388c-2.372 1.585-6.468 5.434-7.755 12.18m16.36 3.335c-3.063 2.172-5.39 4.149-11.52 2.404m-29.86-52.35c-2.016-2.327-3.412-4.266-6.747-1.163m-7.054 22.57c-2.248-1.316-6.855-5.978-4.223-8.774" fill-opacity="0" stroke="url(#a)"/><path d="m75.19 36.85c1.316-0.9323 3.757-3.647 1.015-6.745m-3.702 4.305c3.784-2.331 4.607-8.857 0.9597-8.911m-6.139 22.58c2.358-0.3689 5.431-3.374 9.389-7.91 1.461-1.674 2.405-3.449 0.6932-5.391m-63.19 49.5c7.92 5.052 17.5 5.844 25.1 8.423 6.971 1.373 6.172-4.012 10.37-7.513 5.462-4.79 9.239-15.88 10.66-21.52 1.973-7.908 7.084-14.1 6.855-15.19-0.09003-0.4271-0.2879-2.235-0.2879-2.235m-20.53 33.15c4.168-3.839 8.275-10.02 10.67-18.19m-24.78 21.76c3.606 1.202 8.027 4.576 12.02-7.019m-9.563-0.8078c-0.3839-6.169 3.839-10.97 9.405-15.6 5.674-4.724 9.206-13.09 10.89-16.81 0.04156-1.127 0.1371-2.468 0.1371-2.468m-28 17.82c4.881 2.523 9.049 8.007 8.665 11.08m-17.44 5.484c2.248 1.536 6.745 3.345 9.432 2.523m42.88-47.35c1.206-0.2468 6.526-10.56-2.194-8.061-0.521 2.852-3.345 3.948-5.402 4.113" fill="none" stroke="url(#b)"/><path d="m51.41 30.84c-0.5623-5.409 2.734-5.099 3.122-4.905 3.674 1.837 9.843 5.025 10.14 5.642 0.5041 1.047 0.3684 3.277-1.881 3.122m-12.54 0.3878c-0.2327-2.714-0.1752-5.908 4.304-3.994 8.667 3.703 8.94 3.533 8.744 5.216-0.04474 0.3848 0.09694 1.997-3.199 1.415m-9.607-2.735c3.236 0.1097 7.593 1.309 9.323 2.797-0.1351 3.024-1.761 2.458-7.629 1.471m9.154-18.03c-2.559 0.4653-4.726 4.263 1.519 4.772 0.9266 1.403 2.24 2.698 0.629 4.632m-9.65-4.743c-0.02742-2.742 0.1645-5.292 5.374-3.455" fill-opacity="0" stroke="url(#d)"/><path d="m7.823 47.33c0.8769 0.3837 7.362 1.823 11.07 8.795m-11.07 24.55c0.01946 0 4.767 3.981 6.356 3.982 3.619-12.66 12.3-25.09 13.27-26.76-3.195-2.404-11.89-1.561-11.89-1.561" fill="none" stroke="url(#e)"/><path d="m120.1 47.18c-0.8769 0.3837-5.966 1.314-9.908 8.228m3.006 0.321s-8.817-1.461-12.23 0.9128c0.9705 1.664 8.933 13.27 12.55 25.93 2.068-0.292 6.576-4.118 6.576-4.118" fill="none" stroke="url(#c)"/></g></svg>
